<?xml version="1.0" encoding="UTF-8"?>
<svg width="59px" height="47px" viewBox="0 0 59 47" version="1.1" xmlns="http://www.w3.org/2000/svg" xmlns:xlink="http://www.w3.org/1999/xlink">
    <!-- Generator: Sketch 47.1 (45422) - http://www.bohemiancoding.com/sketch -->
    <title>Page 1</title>
    <desc>Created with Sketch.</desc>
    <defs></defs>
    <g id="Page-1" stroke="none" stroke-width="1" fill="none" fill-rule="evenodd">
        <g id="Dashboard/Home" transform="translate(-137.000000, -668.000000)" fill="#FFFFFF">
            <g id="Group-4" transform="translate(71.000000, 384.000000)">
                <g id="aktuelle-aufgaben" transform="translate(0.000000, 191.000000)">
                    <g id="Page-1" transform="translate(66.000000, 93.000000)">
                        <path d="M57.0972524,17.2508624 L31.2130201,0.579878255 C30.0131031,-0.192934595 28.2016623,-0.193650825 27.0010225,0.579878255 L1.11823585,17.2508624 C0.407682622,17.7085338 0,18.392534 0,19.1273866 C0,19.8622393 0.407682622,20.5462395 1.11823585,21.0039109 L11.759186,27.8575218 L11.759186,36.3169218 C11.759186,40.5484123 20.4867746,42.7629974 29.1073827,42.7629974 C37.7287136,42.7629974 46.4555794,40.5484123 46.4555794,36.3169218 L46.4555794,27.8575218 L51.5154701,24.5979562 L51.5154701,38.3617602 C51.2436817,38.5730482 51.0058668,38.8624054 50.8215422,39.2283993 L48.8236082,43.187006 C48.4405022,43.9476429 48.4426707,44.7412264 48.8315595,45.3636308 C49.2197254,45.9860353 49.9346157,46.3434343 50.7926286,46.3434343 L54.4068362,46.3434343 C55.2648491,46.3434343 55.9797394,45.9860353 56.3679053,45.3636308 C56.756794,44.7412264 56.7589625,43.9469267 56.3758565,43.187006 L54.3779225,39.2283993 C54.1935979,38.8624054 53.9557831,38.5730482 53.6839947,38.3617602 L53.6839947,23.2020227 L57.0972524,21.0039109 C57.8078056,20.5462395 58.2154882,19.8622393 58.2154882,19.1273866 C58.2154882,18.392534 57.8078056,17.7085338 57.0972524,17.2508624 Z M54.4357499,44.1489037 C54.444424,44.1646608 54.4509295,44.1804178 54.4567123,44.1940262 C54.4422554,44.1947425 54.4249072,44.1954587 54.4068362,44.1954587 L50.7926286,44.1954587 C50.7745575,44.1954587 50.7572093,44.1947425 50.7427525,44.1940262 C50.7485352,44.1797016 50.7557636,44.1646608 50.7637149,44.1489037 L52.5997324,40.5104521 L54.4357499,44.1489037 Z M44.2870548,36.3169218 C44.2870548,38.0688219 38.3734882,40.6143055 29.1073827,40.6143055 C19.8412771,40.6143055 13.9277106,38.0688219 13.9277106,36.3169218 L13.9277106,21.9923092 C13.9277106,20.240409 19.8412771,17.6949254 29.1073827,17.6949254 C38.3734882,17.6949254 44.2870548,20.240409 44.2870548,21.9923092 L44.2870548,36.3169218 Z M55.9154065,19.2018746 L51.5834172,21.9923092 L51.5154701,21.9923092 L51.5154701,22.0359992 L46.4555794,25.2948486 L46.4555794,21.9923092 C46.4555794,17.7601024 37.7287136,15.5462335 29.1073827,15.5462335 C20.4867746,15.5462335 11.759186,17.7601024 11.759186,21.9923092 L11.759186,25.2948486 L2.30008175,19.2018746 C2.25671125,19.1739416 2.22490623,19.1481573 2.20249814,19.1273866 C2.22490623,19.106616 2.25671125,19.0808317 2.30008175,19.0528987 L28.1828684,2.38191452 C28.6584981,2.07680027 29.5562673,2.07536781 30.0311742,2.38191452 L55.9154065,19.0521824 C55.9594998,19.0801154 55.990582,19.1058997 56.0129901,19.1266704 C55.990582,19.1481573 55.958777,19.1739416 55.9154065,19.2018746 Z" id="Fill-1"></path>
                        <path d="M42.4120974,31.9318045 C39.2082743,30.7430046 34.4751558,30.0606061 29.4276094,30.0606061 C24.3815154,30.0606061 19.649123,30.7430046 16.4431214,31.9324587 C16.0720531,32.0705087 15.8955959,32.4525995 16.0480897,32.786929 C16.1635494,33.0394754 16.4344075,33.1919192 16.7197888,33.1919192 C16.8120113,33.1919192 16.9056861,33.1762168 16.9957301,33.1428493 C20.0332623,32.0155504 24.564508,31.3691364 29.4276094,31.3691364 C34.2928893,31.3691364 38.8234089,32.0148961 41.8587626,33.142195 C42.2312833,33.2782822 42.6539091,33.1206043 42.8071291,32.7862748 C42.959623,32.4519453 42.7831658,32.0698544 42.4120974,31.9318045 Z" id="Fill-2"></path>
                    </g>
                </g>
            </g>
        </g>
    </g>
</svg>