<?xml version="1.0" encoding="UTF-8"?>
<svg width="37px" height="48px" viewBox="0 0 37 48" version="1.1" xmlns="http://www.w3.org/2000/svg" xmlns:xlink="http://www.w3.org/1999/xlink">
    <!-- Generator: Sketch 47.1 (45422) - http://www.bohemiancoding.com/sketch -->
    <title>Page 1</title>
    <desc>Created with Sketch.</desc>
    <defs></defs>
    <g id="Page-1" stroke="none" stroke-width="1" fill="none" fill-rule="evenodd">
        <g id="Dashboard/Home" transform="translate(-382.000000, -125.000000)" fill="#C8C8C8">
            <g id="Group-3" transform="translate(73.000000, 90.000000)">
                <g id="Sperren" transform="translate(269.000000, 1.000000)">
                    <g id="Page-1" transform="translate(40.465116, 34.170543)">
                        <path d="M2.76684556,47.6589147 L33.2021467,47.6589147 C34.7239117,47.6589147 35.9689922,46.4245831 35.9689922,44.9159556 L35.9689922,21.6008031 C35.9689922,20.0921756 34.7239117,18.857844 33.2021467,18.857844 L31.1270125,18.857844 L31.1270125,13.1662038 C31.1270125,5.89736211 25.2474657,0 17.9844961,0 C13.0041741,0 8.50805009,2.74295912 6.2254025,7.20026769 L5.94871795,7.8174335 L7.19379845,8.4345993 L7.47048301,7.8174335 C9.47644603,3.84014277 13.4883721,1.37147956 17.9844961,1.37147956 C24.4865832,1.37147956 29.7435897,6.65167587 29.7435897,13.1662038 L29.7435897,18.857844 L2.76684556,18.857844 C1.2450805,18.857844 0,20.0921756 0,21.6008031 L0,44.9159556 C0,46.4245831 1.2450805,47.6589147 2.76684556,47.6589147 Z M1.38342278,21.6008031 C1.38342278,20.8464893 2.00596303,20.2293235 2.76684556,20.2293235 L33.2021467,20.2293235 C33.9630292,20.2293235 34.5855695,20.8464893 34.5855695,21.6008031 L34.5855695,44.9159556 C34.5855695,45.6702694 33.9630292,46.2874352 33.2021467,46.2874352 L2.76684556,46.2874352 C2.00596303,46.2874352 1.38342278,45.6702694 1.38342278,44.9159556 L1.38342278,21.6008031 Z" id="Fill-1"></path>
                        <polygon id="Fill-2" points="17.0852713 37.7674419 17.9844961 37.7674419 17.9844961 32.372093 17.0852713 32.372093"></polygon>
                    </g>
                </g>
            </g>
        </g>
    </g>
</svg>