<?xml version="1.0" encoding="UTF-8"?>
<svg width="52px" height="52px" viewBox="0 0 52 52" version="1.1" xmlns="http://www.w3.org/2000/svg" xmlns:xlink="http://www.w3.org/1999/xlink">
    <!-- Generator: Sketch 47.1 (45422) - http://www.bohemiancoding.com/sketch -->
    <title>Math Copy</title>
    <desc>Created with Sketch.</desc>
    <defs></defs>
    <g id="Page-1" stroke="none" stroke-width="1" fill="none" fill-rule="evenodd">
        <g id="Schüler-Home" transform="translate(-253.000000, -504.000000)" fill="#FFFFFF">
            <path d="M257.95,504 C255.21256,504 253,506.21256 253,508.95 L253,523.06872 C253,525.80616 255.21256,528 257.95,528 L272.05,528 C274.78744,528 277,525.80616 277,523.06872 L277,508.95 C277,506.21256 274.78744,504 272.05,504 L257.95,504 Z M285.95,504 C283.21256,504 281,506.21256 281,508.95 L281,523.06872 C281,525.80616 283.21256,528 285.95,528 L300.05,528 C302.78738,528 305,525.80616 305,523.06872 L305,508.95 C305,506.21256 302.78738,504 300.05,504 L285.95,504 Z M264.4641,508.000242 C265.691085,507.981061 266.816803,509.106528 266.797618,510.33324 L266.797618,513.204623 L269.669641,513.204623 C270.88353,513.187452 272,514.287995 272,515.501729 C272,516.715405 270.88353,517.816006 269.669641,517.798835 L266.797618,517.798835 L266.797618,520.670218 C266.814793,521.883779 265.714004,523 264.5,523 C263.285996,523 262.185207,521.883779 262.202382,520.670218 L262.202382,517.798835 L259.330359,517.798835 C258.11647,517.816006 257,516.715405 257,515.501729 C257,514.287995 258.11647,513.187452 259.330359,513.204623 L262.202382,513.204623 L262.202382,510.33324 C262.183541,509.130418 263.261067,508.018963 264.4641,508.000242 Z M290.953586,510.675929 L293,512.722292 L295.046472,510.675929 C296.021637,509.879972 297.23203,509.759203 298.176828,510.503467 C299.20554,511.407617 299.134259,513.131136 298.324375,513.953749 L296.27796,516.000171 L298.324375,518.046534 C299.211336,518.898123 299.227504,520.488644 298.358045,521.358082 C297.488585,522.22752 295.898024,522.211294 295.046414,521.324413 L293,519.277991 L290.953586,521.324413 C290.101976,522.211294 288.511415,522.22752 287.641955,521.358082 C286.772496,520.488644 286.788664,518.898123 287.675625,518.046534 L289.72204,516.000113 L287.675625,513.953749 C286.775625,512.646318 286.858671,511.573994 287.780925,510.540381 C288.830442,509.843927 290.029651,509.750916 290.953586,510.675929 Z M257.95,532 C255.21256,532 253,534.21256 253,536.95 L253,551.06872 C253,553.80616 255.21256,556 257.95,556 L272.05,556 C274.78744,556 277,553.80616 277,551.06872 L277,536.95 C277,534.21256 274.78744,532 272.05,532 L257.95,532 Z M285.95,532 C283.21256,532 281,534.21256 281,536.95 L281,551.06872 C281,553.80616 283.21256,556 285.95,556 L300.05,556 C302.78738,556 305,553.80616 305,551.06872 L305,536.95 C305,534.21256 302.78738,532 300.05,532 L285.95,532 Z M287.3161,538.000217 C291.030207,538.000217 294.796764,538.000217 298.528599,538.000217 C299.815896,537.981478 301,539.178567 301,540.498705 C301,541.818782 299.815957,543.01587 298.528599,542.997194 L287.563544,542.997194 C286.287577,543.063841 285.067532,541.933899 285.002717,540.625566 C284.937962,539.317233 286.040072,538.066427 287.3161,538.000217 Z M259.3161,542.000217 C263.030207,542.000217 266.796764,542.000217 270.528599,542.000217 C271.815957,541.981478 273,543.178567 273,544.498705 C273,545.818782 271.815957,547.01587 270.528599,546.997194 L259.563544,546.997194 C258.287577,547.063841 257.067532,545.933899 257.002717,544.625566 C256.937962,543.317233 258.040072,542.066427 259.3161,542.000217 Z M287.3161,545.000217 C291.030207,545.000217 294.796764,545.000217 298.528599,545.000217 C299.815896,544.981478 301,546.178567 301,547.498705 C301,548.818782 299.815957,550.01587 298.528599,549.997194 L287.563544,549.997194 C286.287577,550.063841 285.067532,548.933899 285.002717,547.625566 C284.937962,546.317233 286.040072,545.066427 287.3161,545.000217 Z" id="Math-Copy"></path>
        </g>
    </g>
</svg>