<?xml version="1.0" encoding="UTF-8"?>
<svg width="64px" height="64px" viewBox="0 0 64 64" version="1.1" xmlns="http://www.w3.org/2000/svg" xmlns:xlink="http://www.w3.org/1999/xlink">
    <!-- Generator: Sketch 47.1 (45422) - http://www.bohemiancoding.com/sketch -->
    <title>noun_1409605_cc</title>
    <desc>Created with Sketch.</desc>
    <defs></defs>
    <g id="Page-1" stroke="none" stroke-width="1" fill="none" fill-rule="evenodd">
        <g id="noun_1409605_cc" fill-rule="nonzero" fill="#000000">
            <g id="Group">
                <g id="Shape">
                    <polygon points="30 30 15 30 15 34 30 34 30 49 34 49 34 34 49 34 49 30 34 30 34 15 30 15"></polygon>
                    <path d="M32,60 C47.463973,60 60,47.463973 60,32 C60,16.536027 47.463973,4 32,4 C16.536027,4 4,16.536027 4,32 C4,47.463973 16.536027,60 32,60 Z M32,64 C14.326888,64 0,49.673112 0,32 C0,14.326888 14.326888,0 32,0 C49.673112,0 64,14.326888 64,32 C64,49.673112 49.673112,64 32,64 Z"></path>
                </g>
            </g>
        </g>
    </g>
</svg>