<?xml version="1.0" encoding="UTF-8"?>
<svg width="82px" height="65px" viewBox="0 0 82 65" version="1.1" xmlns="http://www.w3.org/2000/svg" xmlns:xlink="http://www.w3.org/1999/xlink">
    <!-- Generator: Sketch 47.1 (45422) - http://www.bohemiancoding.com/sketch -->
    <title>noun_353698_cc</title>
    <desc>Created with Sketch.</desc>
    <defs></defs>
    <g id="Page-1" stroke="none" stroke-width="1" fill="none" fill-rule="evenodd">
        <g id="noun_353698_cc" fill-rule="nonzero" fill="#000000">
            <g id="Group">
                <path d="M79.722,24.13 L43.913,0.854 C42.253,-0.225 39.747,-0.226 38.086,0.854 L2.279,24.13 C1.296,24.769 0.732,25.724 0.732,26.75 C0.732,27.776 1.296,28.731 2.279,29.37 L17,38.939 L17,50.75 C17,56.658 29.074,59.75 41,59.75 C52.927,59.75 65,56.658 65,50.75 L65,38.939 L72,34.388 L72,53.605 C71.624,53.9 71.295,54.304 71.04,54.815 L68.276,60.342 C67.746,61.404 67.749,62.512 68.287,63.381 C68.824,64.25 69.813,64.749 71,64.749 L76,64.749 C77.187,64.749 78.176,64.25 78.713,63.381 C79.251,62.512 79.254,61.403 78.724,60.342 L75.96,54.815 C75.705,54.304 75.376,53.9 75,53.605 L75,32.439 L79.722,29.37 C80.705,28.731 81.269,27.776 81.269,26.75 C81.269,25.724 80.705,24.769 79.722,24.13 Z M76.04,61.685 C76.052,61.707 76.061,61.729 76.069,61.748 C76.049,61.749 76.025,61.75 76,61.75 L71,61.75 C70.975,61.75 70.951,61.749 70.931,61.748 C70.939,61.728 70.949,61.707 70.96,61.685 L73.5,56.605 L76.04,61.685 Z M62,50.75 C62,53.196 53.819,56.75 41,56.75 C28.181,56.75 20,53.196 20,50.75 L20,30.75 C20,28.304 28.181,24.75 41,24.75 C53.819,24.75 62,28.304 62,30.75 L62,50.75 Z M78.087,26.854 L72.094,30.75 L72,30.75 L72,30.811 L65,35.361 L65,30.75 C65,24.841 52.927,21.75 41,21.75 C29.074,21.75 17,24.841 17,30.75 L17,35.361 L3.914,26.854 C3.854,26.815 3.81,26.779 3.779,26.75 C3.81,26.721 3.854,26.685 3.914,26.646 L39.721,3.37 C40.379,2.944 41.621,2.942 42.278,3.37 L78.087,26.645 C78.148,26.684 78.191,26.72 78.222,26.749 C78.191,26.779 78.147,26.815 78.087,26.854 Z" id="Shape"></path>
                <path d="M58.881,45.11 C54.469,43.293 47.951,42.25 41,42.25 C34.051,42.25 27.534,43.293 23.119,45.111 C22.608,45.322 22.365,45.906 22.575,46.417 C22.734,46.803 23.107,47.036 23.5,47.036 C23.627,47.036 23.756,47.012 23.88,46.961 C28.063,45.238 34.303,44.25 41,44.25 C47.7,44.25 53.939,45.237 58.119,46.96 C58.632,47.168 59.214,46.927 59.425,46.416 C59.635,45.905 59.392,45.321 58.881,45.11 Z" id="Shape"></path>
            </g>
        </g>
    </g>
</svg>