<?xml version="1.0" encoding="UTF-8"?>
<svg width="129px" height="129px" viewBox="0 0 129 129" version="1.1" xmlns="http://www.w3.org/2000/svg" xmlns:xlink="http://www.w3.org/1999/xlink">
    <!-- Generator: Sketch 47.1 (45422) - http://www.bohemiancoding.com/sketch -->
    <title>Page 1 Copy</title>
    <desc>Created with Sketch.</desc>
    <defs></defs>
    <g id="Page-1" stroke="none" stroke-width="1" fill="none" fill-rule="evenodd">
        <g id="Schüler-Home" transform="translate(-64.000000, -833.000000)" fill="#FFFFFF">
            <path d="M128.5,833 C93.1163033,833 64,862.116303 64,897.5 C64,932.883697 93.1163033,962 128.5,962 C163.883697,962 193,932.883697 193,897.5 C192.960727,862.13121 163.86879,833.039273 128.5,833 Z M155.02947,847 C165.327859,852.284124 173.713281,860.66543 179,870.958763 L165.536346,875 C161.986699,869.011959 156.987544,864.010584 151,860.457045 L155.02947,847 Z M101.956778,847 L106,860.463654 C100.014106,864.015088 95.0150884,869.014106 91.4636542,875 L78,870.956778 C83.2889194,860.663615 91.6743418,852.283006 101.97053,847 L101.956778,847 Z M101.956778,948 C91.6636149,942.713677 83.2830059,934.332371 78,924.041237 L91.4636542,920 C95.0133006,925.988041 100.012456,930.989416 106,934.542955 L101.956778,948 Z M92,897.5 C92,877.476684 108.476684,861 128.5,861 C148.523316,861 165,877.476684 165,897.5 C165,917.523316 148.523316,934 128.5,934 C108.476684,934 92,917.523316 92,897.5 Z M155.041237,948 L151,934.536346 C156.988041,930.986699 161.989416,925.987544 165.542955,920 L179,924.043222 C173.713677,934.336385 165.332371,942.716994 155.041237,948 Z" id="Page-1-Copy"></path>
        </g>
    </g>
</svg>