<?xml version="1.0" encoding="UTF-8"?>
<svg width="59px" height="58px" viewBox="0 0 59 58" version="1.1" xmlns="http://www.w3.org/2000/svg" xmlns:xlink="http://www.w3.org/1999/xlink">
    <!-- Generator: Sketch 47.1 (45422) - http://www.bohemiancoding.com/sketch -->
    <title>Page 1</title>
    <desc>Created with Sketch.</desc>
    <defs></defs>
    <g id="Page-1" stroke="none" stroke-width="1" fill="none" fill-rule="evenodd">
        <g id="Dashboard/Home" transform="translate(-137.000000, -474.000000)" fill="#FFFFFF">
            <g id="Group-4" transform="translate(71.000000, 384.000000)">
                <g id="aufgaben-erstellen" transform="translate(1.000000, 0.000000)">
                    <g id="Page-1" transform="translate(65.252525, 90.181818)">
                        <polygon id="Fill-1" points="27.2885101 26.7140152 13.6442551 26.7140152 13.6442551 30.2758838 27.2885101 30.2758838 27.2885101 43.6328914 30.9269781 43.6328914 30.9269781 30.2758838 44.5712332 30.2758838 44.5712332 26.7140152 30.9269781 26.7140152 30.9269781 13.3570076 27.2885101 13.3570076"></polygon>
                        <path d="M29.1077441,53.4280303 C43.1740614,53.4280303 54.5770202,42.2651338 54.5770202,28.4949495 C54.5770202,14.7247652 43.1740614,3.56186869 29.1077441,3.56186869 C15.0414268,3.56186869 3.63846801,14.7247652 3.63846801,28.4949495 C3.63846801,42.2651338 15.0414268,53.4280303 29.1077441,53.4280303 Z M29.1077441,56.989899 C13.0319918,56.989899 0,44.2322649 0,28.4949495 C0,12.7576341 13.0319918,0 29.1077441,0 C45.1834964,0 58.2154882,12.7576341 58.2154882,28.4949495 C58.2154882,44.2322649 45.1834964,56.989899 29.1077441,56.989899 Z" id="Fill-2"></path>
                    </g>
                </g>
            </g>
        </g>
    </g>
</svg>