<?xml version="1.0" encoding="UTF-8"?>
<svg width="70px" height="48px" viewBox="0 0 70 48" version="1.1" xmlns="http://www.w3.org/2000/svg" xmlns:xlink="http://www.w3.org/1999/xlink">
    <!-- Generator: Sketch 47.1 (45422) - http://www.bohemiancoding.com/sketch -->
    <title>Read</title>
    <desc>Created with Sketch.</desc>
    <defs></defs>
    <g id="Page-1" stroke="none" stroke-width="1" fill="none" fill-rule="evenodd">
        <g id="Schüler-Home" transform="translate(-94.000000, -506.000000)" fill="#FFFFFF">
            <g id="Group-2-Copy" transform="translate(64.000000, 465.000000)">
                <g id="Read" transform="translate(30.000000, 41.000000)">
                    <path d="M33,6.43098203 C25.3026236,3.49533541 18.6996695,-0.0512602707 10.931274,0.000561301663 C9.34336009,0.0114711064 7.70536858,0.173299876 6,0.520595326 L6.28771835,42.326967 C19.0046874,40.7659558 26.8158764,43.6879651 33,47 L33,6.43098203 Z" id="Fill-1"></path>
                    <path d="M63.7040871,42.330152 L64,0.520646244 C62.2928104,0.173317205 60.6548189,0.0114727842 59.065084,0.000561924303 C51.2948675,-0.05126466 44.6946449,3.49203708 37,6.42796762 L37,47 C43.1841236,43.688554 50.9989546,40.769899 63.7040871,42.330152 Z" id="Fill-2"></path>
                    <path d="M68.7187456,8.53557834 L68.4621308,44.2769245 C68.4612208,44.3924589 68.451211,44.5070978 68.4321014,44.620841 C68.2300854,45.8415655 67.0607588,46.6700103 65.8204536,46.4702879 C55.6195576,44.8313107 49.1905362,45.9212754 44,48 L70,48 L69.9690606,8 L68.7187456,8.53557834 Z" id="Fill-3"></path>
                    <path d="M4.17146858,46.4711493 C4.05587257,46.4899577 3.93845615,46.4998097 3.82103973,46.4998097 C2.56404691,46.508766 1.53824611,45.5128188 1.52914406,44.2759455 L1.27974794,8.53738161 L0.0254857343,8 L0,48 L26,48 C20.8100123,45.9221244 14.3812358,44.8321354 4.17146858,46.4711493 Z" id="Fill-4"></path>
                </g>
            </g>
        </g>
    </g>
</svg>