<?xml version="1.0" encoding="UTF-8"?>
<svg width="55px" height="54px" viewBox="0 0 55 54" version="1.1" xmlns="http://www.w3.org/2000/svg" xmlns:xlink="http://www.w3.org/1999/xlink">
    <!-- Generator: Sketch 47.1 (45422) - http://www.bohemiancoding.com/sketch -->
    <title>Page 1</title>
    <desc>Created with Sketch.</desc>
    <defs></defs>
    <g id="Page-1" stroke="none" stroke-width="1" fill="none" fill-rule="evenodd">
        <g id="Dashboard/Home" transform="translate(-334.000000, -668.000000)" fill="#FFFFFF">
            <g id="Group-4" transform="translate(71.000000, 384.000000)">
                <g id="aufgaben-verteilen" transform="translate(195.000000, 191.000000)">
                    <path d="M95.3347028,93.0184784 C95.185013,93.0514784 95.0483671,93.1267091 94.9418163,93.2348629 L90.2271787,97.850245 C90.0827536,97.9947065 90.0017404,98.1890141 90.0017404,98.3912447 C90.0017404,98.8155522 90.3584028,99.1647058 90.7918351,99.1647058 C91.0043867,99.1647058 91.2081376,99.0807059 91.3567273,98.9319367 L94.7208569,95.6387078 L94.7208569,107.633855 C94.7207784,107.63747 94.7207784,107.641086 94.7207784,107.644701 C94.7207784,108.066778 95.0754763,108.414008 95.5066299,108.414008 C95.9377049,108.414008 96.2924814,108.066778 96.2924814,107.644701 C96.2924814,107.641086 96.2924028,107.63747 96.2924028,107.633855 L96.2924028,95.6387078 L99.6564539,98.9319367 C99.8050436,99.0807059 100.008873,99.1647058 100.221425,99.1647058 C100.654857,99.1647058 101.011441,98.8155522 101.011441,98.3912447 C101.011441,98.1890141 100.930506,97.9947065 100.786002,97.850245 L96.0713649,93.2348629 C95.8812864,93.0421707 95.6017084,92.9600939 95.3347028,93.0184784 Z M76.5252631,100.662705 C76.1319838,100.711243 75.8346473,101.043859 75.8377118,101.431935 L75.8377118,107.970393 C75.8376332,107.974009 75.8376332,107.977624 75.8376332,107.981239 C75.8376332,108.403316 76.1924097,108.750547 76.6234847,108.750547 C77.0546383,108.750547 77.4093362,108.403316 77.4093362,107.981239 C77.4093362,107.977624 77.4093362,107.974009 77.4092577,107.970393 L77.4092577,103.306934 L86.05276,111.768468 C86.2013496,111.917237 86.4051791,112.001237 86.6177307,112.001237 C87.051163,112.001237 87.4077468,111.652084 87.4077468,111.227776 C87.4077468,111.025545 87.3268122,110.831238 87.1823085,110.686776 L78.5142901,102.201166 L83.2780386,102.201166 C83.2817317,102.201243 83.2854248,102.201243 83.289118,102.201243 C83.720193,102.201243 84.0749695,101.854012 84.0749695,101.431935 C84.0749695,101.009936 83.720193,100.662628 83.289118,100.662628 C83.2854248,100.662628 83.2817317,100.662628 83.2780386,100.662705 L76.6234847,100.662705 C76.5907966,100.660705 76.5579513,100.660705 76.5252631,100.662705 Z M107.661516,100.662705 C107.244349,100.681859 106.911731,101.023089 106.911731,101.431935 C106.911731,101.854397 107.266822,102.202012 107.698368,102.202012 C107.710626,102.202012 107.722963,102.201704 107.735221,102.201166 L112.49897,102.201166 L103.830873,110.686776 C103.686448,110.831238 103.605434,111.025545 103.605434,111.227776 C103.605434,111.652084 103.962097,112.001237 104.395529,112.001237 C104.608081,112.001237 104.811832,111.917237 104.960421,111.768468 L113.603924,103.306934 L113.603924,107.970393 C113.603845,107.974009 113.603845,107.977624 113.603845,107.981239 C113.603845,108.403316 113.958621,108.750547 114.389696,108.750547 C114.82085,108.750547 115.175548,108.403316 115.175548,107.981239 C115.175548,107.977624 115.175548,107.974009 115.175469,107.970393 L115.175469,101.431935 C115.175469,101.009936 114.820771,100.662782 114.389696,100.662705 L107.735221,100.662705 C107.710626,100.661551 107.686032,100.661551 107.661516,100.662705 Z M95.5066299,113.018467 C91.610139,113.018467 88.4346735,116.127158 88.4346735,119.941541 C88.4346735,123.755923 91.610139,126.864614 95.5066299,126.864614 C99.4030421,126.864614 102.578586,123.755923 102.578586,119.941541 C102.578586,116.127158 99.4030421,113.018467 95.5066299,113.018467 Z M73.480393,114.532928 C73.2752277,114.540851 73.0812203,114.627159 72.9401741,114.773313 L68.2255365,119.388695 C67.9248212,119.686387 67.9248212,120.172617 68.2255365,120.470386 L72.9401741,125.085769 C73.088528,125.232461 73.2908646,125.315076 73.5016874,125.315076 C73.9351198,125.315076 74.2917821,124.965999 74.2917821,124.541692 C74.2917821,124.341077 74.2121047,124.148231 74.0697227,124.004077 L70.7056716,120.710771 L82.9342629,120.710771 C82.937956,120.710848 82.9416492,120.710848 82.9453423,120.710848 C83.3764173,120.710848 83.7311938,120.363617 83.7311938,119.941541 C83.7311938,119.519541 83.3764173,119.172233 82.9453423,119.172233 C82.9416492,119.172233 82.937956,119.172233 82.9342629,119.17231 L70.7056716,119.17231 L74.0697227,115.855004 C74.2234199,115.710081 74.3103264,115.509928 74.3103264,115.301005 C74.3103264,114.878928 73.9556285,114.531697 73.5244748,114.531697 C73.5097809,114.531697 73.4950869,114.532082 73.480393,114.532928 Z M117.41005,114.532928 C117.009463,114.571082 116.700262,114.90462 116.700262,115.29862 C116.700262,115.508697 116.78819,115.709928 116.943458,115.855004 L120.307588,119.17231 L108.078997,119.17231 C108.029965,119.167772 107.980618,119.167772 107.931664,119.17231 C107.52817,119.20931 107.216061,119.544849 107.216061,119.941541 C107.216061,120.365387 107.57233,120.714156 108.005291,120.714156 C108.029886,120.714156 108.054481,120.713002 108.078997,120.710771 L120.307588,120.710771 L116.943458,124.004077 C116.801076,124.148231 116.721399,124.341077 116.721399,124.541692 C116.721399,124.965999 117.078061,125.315076 117.511494,125.315076 C117.722395,125.315076 117.924653,125.232461 118.073007,125.085769 L122.787645,120.470386 C123.08836,120.172617 123.08836,119.686387 122.787645,119.388695 L118.073007,114.773313 C117.903516,114.595005 117.657255,114.505697 117.41005,114.532928 Z M95.5066299,114.556928 C98.5537002,114.556928 101.00704,116.958619 101.00704,119.941541 C101.00704,122.924462 98.5537002,125.326153 95.5066299,125.326153 C92.459481,125.326153 90.0062193,122.924462 90.0062193,119.941541 C90.0062193,116.958619 92.459481,114.556928 95.5066299,114.556928 Z M86.5929788,127.850229 C86.3878135,127.858152 86.1938062,127.944459 86.05276,128.090613 L77.4092577,136.576147 L77.4092577,131.888688 C77.4092577,131.886688 77.4092577,131.884688 77.4092577,131.882688 C77.4092577,131.460688 77.0545598,131.113381 76.6234061,131.113381 C76.5906394,131.113381 76.5578727,131.115381 76.5252631,131.119458 C76.1319838,131.167996 75.8346473,131.500611 75.8377118,131.888688 L75.8377118,138.427146 C75.8377904,138.849069 76.1924883,139.196299 76.6234847,139.196376 L83.2780386,139.196376 C83.2817317,139.196376 83.2854248,139.196453 83.289118,139.196453 C83.720193,139.196453 84.0749695,138.849146 84.0749695,138.427146 C84.0749695,138.005069 83.720193,137.657839 83.289118,137.657839 C83.2854248,137.657839 83.2817317,137.657839 83.2780386,137.657916 L78.5142901,137.657916 L87.1823085,129.172305 C87.3360057,129.027382 87.4229122,128.827228 87.4229122,128.618305 C87.4229122,128.196228 87.0682143,127.848998 86.6370607,127.848998 C86.6223668,127.848998 86.6076728,127.849382 86.5929788,127.850229 Z M104.321981,127.850229 C103.911964,127.877613 103.58964,128.215459 103.58964,128.61769 C103.58964,128.82692 103.676861,129.027305 103.830873,129.172305 L112.49897,137.657916 L107.735221,137.657916 C107.731528,137.657839 107.727756,137.657839 107.724063,137.657839 C107.292988,137.657839 106.938212,138.005069 106.938212,138.427146 C106.938212,138.849146 107.292988,139.196453 107.724063,139.196453 C107.727756,139.196453 107.731528,139.196376 107.735221,139.196376 L114.389696,139.196376 C114.820771,139.196299 115.175469,138.849069 115.175469,138.427146 L115.175469,131.888688 C115.175469,131.887534 115.175469,131.886457 115.175469,131.88538 C115.175469,131.463304 114.820771,131.116073 114.389618,131.116073 C114.365102,131.116073 114.340507,131.11715 114.31607,131.119458 C113.913204,131.156611 113.602195,131.492534 113.603924,131.888688 L113.603924,136.576147 L104.960421,128.090613 C104.796352,127.919382 104.561013,127.83069 104.321981,127.850229 Z M95.4084083,131.455996 C95.0057782,131.50538 94.7050629,131.852303 94.7208569,132.249226 L94.7208569,144.220373 L91.3567273,140.927144 C91.187236,140.748837 90.9409748,140.659529 90.6937706,140.68676 C90.2931836,140.724914 89.983982,141.058452 89.983982,141.452452 C89.983982,141.662529 90.0719099,141.863759 90.2271787,142.008836 L94.9418163,146.624218 C95.0898559,146.773987 95.293764,146.858603 95.5066299,146.858603 C95.7194172,146.858603 95.9234038,146.773987 96.0713649,146.624218 L100.786002,142.008836 C100.928385,141.864682 101.008062,141.671759 101.008062,141.471221 C101.008062,141.046914 100.6514,140.69776 100.217967,140.69776 C100.007144,140.69776 99.8048078,140.780375 99.6564539,140.927144 L96.2924028,144.220373 L96.2924028,132.249226 C96.2927957,132.239226 96.2929529,132.229226 96.2929529,132.219149 C96.2929529,131.797149 95.9382549,131.449842 95.5071013,131.449842 C95.4740989,131.449842 95.4410964,131.451919 95.4084083,131.455996 Z" id="Page-1"></path>
                </g>
            </g>
        </g>
    </g>
</svg>