<?xml version="1.0" encoding="UTF-8"?>
<svg width="61px" height="48px" viewBox="0 0 61 48" version="1.1" xmlns="http://www.w3.org/2000/svg" xmlns:xlink="http://www.w3.org/1999/xlink">
    <!-- Generator: Sketch 47.1 (45422) - http://www.bohemiancoding.com/sketch -->
    <title>Page 1</title>
    <desc>Created with Sketch.</desc>
    <defs></defs>
    <g id="Page-1" stroke="none" stroke-width="1" fill="none" fill-rule="evenodd">
        <g id="Dashboard/Home" transform="translate(-330.000000, -477.000000)" fill="#FFFFFF">
            <g id="Group-4" transform="translate(71.000000, 384.000000)">
                <g id="aktuelle-aufgaben" transform="translate(195.000000, 0.000000)">
                    <g id="Page-1" transform="translate(64.000000, 93.000000)">
                        <polygon id="Fill-1" points="15.7622185 44.0223738 60.9616396 44.0223738 60.9616396 40.9811045 15.7622185 40.9811045"></polygon>
                        <polygon id="Fill-2" points="6.11775604 43.7182469 2.01526081 39.3844381 0 41.5133266 6.11775604 48.0520557 14.7545881 38.9282476 12.6673537 36.7993591"></polygon>
                        <polygon id="Fill-3" points="15.7622185 25.6226943 60.9616396 25.6226943 60.9616396 22.5814249 15.7622185 22.5814249"></polygon>
                        <polygon id="Fill-4" points="6.11775604 25.3185673 2.01526081 20.9847585 0 23.1896788 6.11775604 29.6523761 14.7545881 20.5285681 12.6673537 18.3996796"></polygon>
                        <polygon id="Fill-5" points="15.7622185 7.2230147 60.9616396 7.2230147 60.9616396 4.18174535 15.7622185 4.18174535"></polygon>
                        <polygon id="Fill-6" points="6.11775604 6.91888777 2.01526081 2.58507895 0 4.78999922 6.11775604 11.2526966 14.7545881 2.20492028 12.6673537 0"></polygon>
                    </g>
                </g>
            </g>
        </g>
    </g>
</svg>