<?xml version="1.0" encoding="UTF-8"?>
<svg width="62px" height="62px" viewBox="0 0 62 62" version="1.1" xmlns="http://www.w3.org/2000/svg" xmlns:xlink="http://www.w3.org/1999/xlink">
    <!-- Generator: Sketch 47.1 (45422) - http://www.bohemiancoding.com/sketch -->
    <title>Chrome Copy</title>
    <desc>Created with Sketch.</desc>
    <defs></defs>
    <g id="Page-1" stroke="none" stroke-width="1" fill="none" fill-rule="evenodd">
        <g id="Schüler-Home" transform="translate(-398.000000, -499.000000)" fill="#FFFFFF">
            <g id="Chrome-Copy" transform="translate(398.000000, 499.000000)">
                <path d="M31.0325045,62 C29.0893054,62 27.1279014,61.814559 25.2035814,61.4483974 C17.0714078,59.8994594 10.0295024,55.2762472 5.37378074,48.4304406 C0.718059099,41.584634 -0.992522482,33.3348705 0.556238216,25.2024406 C3.33551188,10.5998064 16.1247556,0 30.9664276,0 C32.9096267,0 34.8717049,0.18544098 36.7960249,0.552276954 C44.9281985,2.10121488 51.9707782,6.72375276 56.6264998,13.5695594 C61.2822215,20.415366 62.9921288,28.6644552 61.4440423,36.796885 C58.6647687,51.4001936 45.8748507,62 31.0325045,62 Z M30.9664276,3.37165418 C17.741616,3.37165418 6.34538029,12.8176805 3.86884654,25.83294 C2.48864926,33.0813221 4.01313682,40.4322026 8.16249396,46.533548 C12.3111768,52.6348934 18.5878043,56.7550548 25.8353571,58.13541 C27.552007,58.4624604 29.3016953,58.6276715 31.0331787,58.6276715 C44.2593389,58.6276715 55.6555745,49.1809708 58.1321083,36.165037 C59.5123056,28.9180035 57.9871437,21.5664488 53.8384609,15.4657777 C49.689778,9.36510664 43.4131505,5.24494524 36.1649235,3.86459002 C34.4475993,3.53753956 32.697911,3.37165418 30.9664276,3.37165418 Z" id="Fill-1"></path>
                <path d="M21.285673,36 C21.2458692,36 21.2060653,35.9986177 21.1662615,35.995853 C12.4245114,35.3897018 2.38570475,27.0521846 3.02942916,17.6094955 C3.09462513,16.657762 3.90648651,15.9403333 4.85903394,16.0039204 C5.80403235,16.0695811 6.51775664,16.8941403 6.45324695,17.8465649 C6.03599275,23.9688999 12.8513735,31.9559966 21.4023395,32.5490158 C22.3473379,32.6146764 23.0610622,33.4399268 22.9958662,34.3916603 C22.9334154,35.3033062 22.1798872,36 21.285673,36 Z" id="Fill-2"></path>
                <path d="M25.6526235,61 C24.9138153,61 24.2411492,60.4917181 24.0513211,59.728621 C23.8264377,58.8266565 24.361528,57.9098615 25.2471719,57.6806628 C31.9870607,55.9360558 37.0886076,47.0633676 35.3556823,40.0997701 C35.1307989,39.1978056 35.6665506,38.2810106 36.5521945,38.052486 C37.4371769,37.8226131 38.3360492,38.3693195 38.5609327,39.2719582 C40.737672,48.0152165 34.5461019,58.7518299 26.0613822,60.9474191 C25.9244679,60.982473 25.7875535,61 25.6526235,61 Z" id="Fill-3"></path>
                <path d="M32.6925634,22 C32.3829555,22 32.0699602,21.9148189 31.7888064,21.7362792 C30.9981885,21.2333697 30.7624258,20.1812122 31.2624053,19.3859611 C33.7060719,15.4982936 38.2878621,12.5258124 43.5193547,11.4334494 C48.2874517,10.4385337 52.9308925,11.1744988 56.2593467,13.4546276 C57.0323502,13.9841136 57.2328839,15.0437671 56.7058053,15.821982 C56.1800816,16.6001969 55.1259243,16.8012244 54.3522434,16.271057 C51.7785008,14.508148 48.0794656,13.9616258 44.2076733,14.7698245 C39.8569034,15.6781962 36.0880879,18.0843932 34.1254314,21.2067932 C33.8036289,21.7192429 33.253516,22 32.6925634,22 Z" id="Fill-4"></path>
                <path d="M31.5090488,43 C30.7884606,43 30.0610162,42.9314293 29.3479698,42.7956592 C23.1204698,41.6093852 19.0190821,35.5772166 20.203836,29.3496214 C21.2370676,23.9318466 25.9829395,20 31.4884801,20 C32.2090683,20 32.9365127,20.0692565 33.6502447,20.2043408 C36.6662936,20.778278 39.2791971,22.4932324 41.0062777,25.0330928 C42.7333582,27.5729533 43.3682437,30.6332658 42.7936929,33.6510643 C41.7625182,39.0688391 37.0173318,43 31.5090488,43 Z M31.4891657,23.4278516 C27.6270599,23.4278516 24.2969963,26.1878242 23.5722944,29.9907579 C22.7406355,34.3614573 25.6195602,38.5950152 29.9897115,39.4274641 C30.4915865,39.5234631 31.0037457,39.5714626 31.5097344,39.5714626 C35.3738971,39.5714626 38.7025895,36.8121758 39.4266057,33.0099279 C39.8297512,30.8924632 39.3840972,28.7441417 38.172604,26.9613022 C36.9597396,25.1791485 35.1270734,23.9757319 33.0098742,23.5725359 C32.506628,23.4765369 31.9951544,23.4278516 31.4891657,23.4278516 Z" id="Fill-5"></path>
            </g>
        </g>
    </g>
</svg>