<?xml version="1.0" encoding="UTF-8"?>
<svg width="62px" height="65px" viewBox="0 0 62 65" version="1.1" xmlns="http://www.w3.org/2000/svg" xmlns:xlink="http://www.w3.org/1999/xlink">
    <!-- Generator: Sketch 47.1 (45422) - http://www.bohemiancoding.com/sketch -->
    <title>Page-1</title>
    <desc>Created with Sketch.</desc>
    <defs></defs>
    <g id="Page-1" stroke="none" stroke-width="1" fill="none" fill-rule="evenodd">
        <g id="home" fill-rule="nonzero" fill="#FFFFFF">
            <path d="M54.2470305,64.2248062 L8.5021799,64.2248062 C6.9773516,64.2248062 5.6558337,63.0168605 5.6558337,61.5069285 L5.6558337,31.5096112 L3.7243844,31.5096112 C2.8094874,31.5096112 1.8945904,31.1069627 1.284659,30.3016656 C0.4714173,29.0937199 0.6747277,27.5837878 1.5896247,26.6778286 L28.2232933,1.512294 C29.8497769,0.0023619 32.5944679,0.0023619 34.2209515,1.512294 L60.7529648,26.5771665 C61.6678618,27.2818014 62.0744827,28.2884228 61.8711723,29.2950442 C61.5662066,30.603652 60.4479992,31.5096112 59.1264813,31.5096112 L57.0933768,31.5096112 L57.0933768,61.5069285 C56.9917216,63.0168605 55.7718589,64.2248062 54.2470305,64.2248062 Z M31.4495337,3.349378 C30.9460511,3.349378 30.543265,3.552423 30.2411754,3.8569905 L3.8586848,29.2376152 C3.8586848,29.2376152 3.7579883,29.3391377 3.7579883,29.5421827 C3.8586848,29.7452277 3.9593813,29.7452277 3.9593813,29.7452277 L8.4907251,29.7452277 L8.4907251,62.5369947 C8.4907251,62.6385172 8.5914217,62.7400397 8.6921182,62.7400397 L54.0055562,62.7400397 C54.1062528,62.7400397 54.2069493,62.6385172 54.2069493,62.5369947 L54.2069493,29.7452277 L58.7382931,29.7452277 C58.7382931,29.7452277 58.9396861,29.7452277 58.9396861,29.6437052 C58.9396861,29.5421827 58.9396861,29.4406602 58.8389896,29.3391377 L32.456499,3.958513 C32.3558025,3.552423 31.8523199,3.349378 31.4495337,3.349378 Z" id="Page-1"></path>
        </g>
    </g>
</svg>