<?xml version="1.0" encoding="UTF-8" standalone="no"?><!DOCTYPE svg PUBLIC "-//W3C//DTD SVG 1.1//EN" "http://www.w3.org/Graphics/SVG/1.1/DTD/svg11.dtd"><svg width="100%" height="100%" viewBox="0 0 100 100" version="1.1" xmlns="http://www.w3.org/2000/svg" xmlns:xlink="http://www.w3.org/1999/xlink" xml:space="preserve" xmlns:serif="http://www.serif.com/" style="fill-rule:evenodd;clip-rule:evenodd;stroke-linejoin:round;stroke-miterlimit:1.41421;"><rect id="ArtBoard1" x="0" y="0" width="100" height="100" style="fill:none;"/><clipPath id="_clip1"><rect id="ArtBoard11" serif:id="ArtBoard1" x="0" y="0" width="100" height="100"/></clipPath><g clip-path="url(#_clip1)"><g><path d="M28,84.8l44,0c2.2,0 4,-1.8 4,-4l0,-34c0,-2.2 -1.8,-4 -4,-4l-3,0l0,-8.3c0,-10.6 -8.5,-19.2 -19,-19.2c-10.5,0 -19,8.6 -19,19.2l0,8.3l-3,0c-2.2,0 -4,1.8 -4,4l0,34c0,2.2 1.8,4 4,4Zm5,-50.3c0,-9.5 7.6,-17.2 17,-17.2c9.4,0 17,7.7 17,17.2l0,8.3l-34,0l0,-8.3Zm-7,12.3c0,-1.1 0.9,-2 2,-2l44,0c1.1,0 2,0.9 2,2l0,34c0,1.1 -0.9,2 -2,2l-44,0c-1.1,0 -2,-0.9 -2,-2l0,-34Z" style="fill-rule:nonzero;"/><rect x="49" y="62.8" width="2" height="8"/></g></g></svg>