<?xml version="1.0" encoding="UTF-8"?>
<svg width="90px" height="90px" viewBox="0 0 90 90" version="1.1" xmlns="http://www.w3.org/2000/svg" xmlns:xlink="http://www.w3.org/1999/xlink">
    <!-- Generator: Sketch 47.1 (45422) - http://www.bohemiancoding.com/sketch -->
    <title>noun_200962_cc</title>
    <desc>Created with Sketch.</desc>
    <defs></defs>
    <g id="Page-1" stroke="none" stroke-width="1" fill="none" fill-rule="evenodd">
        <g id="noun_200962_cc" fill-rule="nonzero" fill="#000000">
            <g id="Group">
                <path d="M45,8 C65.4,8 82,24.6 82,45 C82,65.4 65.4,82 45,82 C24.6,82 8,65.4 8,45 C8,24.6 24.6,8 45,8 L45,8 Z M45,0 C20.1,0 0,20.1 0,45 C0,69.9 20.1,90 45,90 C69.9,90 90,69.9 90,45 C90,20.1 69.9,0 45,0 L45,0 Z" id="Shape"></path>
                <path d="M62.3,44 L46.9,44 L46.9,26.6 C46.9,24.4 45.1,22.6 42.9,22.6 C40.7,22.6 38.9,24.4 38.9,26.6 L38.9,46 C38.9,46.4 39,46.7 39,47 C38.9,47.3 38.9,47.7 38.9,48 C38.9,50.2 40.7,52 42.9,52 L62.3,52 C64.5,52 66.3,50.2 66.3,48 C66.3,45.8 64.5,44 62.3,44 Z" id="Shape"></path>
            </g>
        </g>
    </g>
</svg>