<svg xmlns:dc="http://purl.org/dc/elements/1.1/" xmlns:cc="http://creativecommons.org/ns#" xmlns:rdf="http://www.w3.org/1999/02/22-rdf-syntax-ns#" xmlns:svg="http://www.w3.org/2000/svg" xmlns="http://www.w3.org/2000/svg" xmlns:sodipodi="http://sodipodi.sourceforge.net/DTD/sodipodi-0.dtd" xmlns:inkscape="http://www.inkscape.org/namespaces/inkscape" version="1.1" x="0px" y="0px" viewBox="0 0 100 125"><g transform="translate(0,-952.36218)"><path style="font-size:medium;font-style:normal;font-variant:normal;font-weight:normal;font-stretch:normal;text-indent:0;text-align:start;text-decoration:none;line-height:normal;letter-spacing:normal;word-spacing:normal;text-transform:none;direction:ltr;block-progression:tb;writing-mode:lr-tb;text-anchor:start;baseline-shift:baseline;opacity:1;color:#000000;fill:#000000;fill-opacity:1;stroke:none;stroke-width:1.99999964000000000;marker:none;visibility:visible;display:inline;overflow:visible;enable-background:accumulate;font-family:Sans;-inkscape-font-specification:Sans" d="M 49.78125 15 A 1.0000998 1.0000998 0 0 0 49.28125 15.28125 L 43.28125 21.28125 A 1.0054782 1.0054782 0 1 0 44.71875 22.6875 L 49 18.40625 L 49 34 A 1.0000998 1.0000998 0 1 0 51 34 L 51 18.40625 L 55.28125 22.6875 A 1.0054782 1.0054782 0 1 0 56.71875 21.28125 L 50.71875 15.28125 A 1.0000998 1.0000998 0 0 0 49.78125 15 z M 25.84375 24.9375 A 1.0000998 1.0000998 0 0 0 24.96875 25.9375 L 24.96875 34.4375 A 1.0000998 1.0000998 0 1 0 26.96875 34.4375 L 26.96875 28.375 L 37.96875 39.375 A 1.0054782 1.0054782 0 1 0 39.40625 37.96875 L 28.375 26.9375 L 34.4375 26.9375 A 1.0000998 1.0000998 0 1 0 34.4375 24.9375 L 25.96875 24.9375 A 1.0000998 1.0000998 0 0 0 25.84375 24.9375 z M 65.46875 24.9375 A 1.001098 1.001098 0 1 0 65.5625 26.9375 L 71.625 26.9375 L 60.59375 37.96875 A 1.0054782 1.0054782 0 1 0 62.03125 39.375 L 73.03125 28.375 L 73.03125 34.4375 A 1.0000998 1.0000998 0 1 0 75.03125 34.4375 L 75.03125 25.9375 A 1.0000998 1.0000998 0 0 0 74.03125 24.9375 L 65.5625 24.9375 A 1.0000998 1.0000998 0 0 0 65.46875 24.9375 z M 50 41 C 45.041282 41 41 45.04126 41 50 C 41 54.9587 45.041282 59 50 59 C 54.958718 59 59 54.9587 59 50 C 59 45.04126 54.958718 41 50 41 z M 21.96875 42.96875 A 1.0000998 1.0000998 0 0 0 21.28125 43.28125 L 15.28125 49.28125 A 1.0000998 1.0000998 0 0 0 15.28125 50.6875 L 21.28125 56.6875 A 1.0054956 1.0054956 0 0 0 22.71875 55.28125 L 18.4375 51 L 34 51 A 1.0000998 1.0000998 0 1 0 34 49 L 18.4375 49 L 22.71875 44.6875 A 1.0000998 1.0000998 0 0 0 21.96875 42.96875 z M 77.875 42.96875 A 1.0000998 1.0000998 0 0 0 77.28125 44.6875 L 81.5625 49 L 66 49 A 1.0000998 1.0000998 0 0 0 65.8125 49 A 1.0043849 1.0043849 0 0 0 66 51 L 81.5625 51 L 77.28125 55.28125 A 1.0054956 1.0054956 0 0 0 78.71875 56.6875 L 84.71875 50.6875 A 1.0000998 1.0000998 0 0 0 84.71875 49.28125 L 78.71875 43.28125 A 1.0000998 1.0000998 0 0 0 77.875 42.96875 z M 50 43 C 53.877838 43 57 46.12214 57 50 C 57 53.8778 53.877838 57 50 57 C 46.122162 57 43 53.8778 43 50 C 43 46.12214 46.122162 43 50 43 z M 38.65625 60.28125 A 1.0000998 1.0000998 0 0 0 37.96875 60.59375 L 26.96875 71.625 L 26.96875 65.53125 A 1.0000998 1.0000998 0 0 0 25.84375 64.53125 A 1.0000998 1.0000998 0 0 0 24.96875 65.53125 L 24.96875 74.03125 A 1.0000998 1.0000998 0 0 0 25.96875 75.03125 L 34.4375 75.03125 A 1.0000998 1.0000998 0 1 0 34.4375 73.03125 L 28.375 73.03125 L 39.40625 62 A 1.0000998 1.0000998 0 0 0 38.65625 60.28125 z M 61.21875 60.28125 A 1.0000998 1.0000998 0 0 0 60.59375 62 L 71.625 73.03125 L 65.5625 73.03125 A 1.0000998 1.0000998 0 1 0 65.5625 75.03125 L 74.03125 75.03125 A 1.0000998 1.0000998 0 0 0 75.03125 74.03125 L 75.03125 65.53125 A 1.0000998 1.0000998 0 0 0 73.9375 64.53125 A 1.0000998 1.0000998 0 0 0 73.03125 65.53125 L 73.03125 71.625 L 62.03125 60.59375 A 1.0000998 1.0000998 0 0 0 61.21875 60.28125 z M 49.875 64.96875 A 1.0000998 1.0000998 0 0 0 49 66 L 49 81.5625 L 44.71875 77.28125 A 1.0000998 1.0000998 0 0 0 43.875 76.96875 A 1.0000998 1.0000998 0 0 0 43.28125 78.6875 L 49.28125 84.6875 A 1.0000998 1.0000998 0 0 0 50.71875 84.6875 L 56.71875 78.6875 A 1.0054956 1.0054956 0 0 0 55.28125 77.28125 L 51 81.5625 L 51 66 A 1.0000998 1.0000998 0 0 0 49.875 64.96875 z " transform="translate(0,952.36218)"/></g><text x="0" y="115" fill="#000000" font-size="5px" font-weight="bold" font-family="'Helvetica Neue', Helvetica, Arial-Unicode, Arial, Sans-serif">Created by amy morgan</text><text x="0" y="120" fill="#000000" font-size="5px" font-weight="bold" font-family="'Helvetica Neue', Helvetica, Arial-Unicode, Arial, Sans-serif">from the Noun Project</text></svg>