<svg xmlns="http://www.w3.org/2000/svg" xmlns:xlink="http://www.w3.org/1999/xlink" version="1.1" x="0px" y="0px" viewBox="0 0 100 125" enable-background="new 0 0 100 100" xml:space="preserve"><path d="M72.5,81.7h-45c-1.5,0-2.8-1.2-2.8-2.7V49.2h-1.9c-0.9,0-1.8-0.4-2.4-1.2c-0.8-1.2-0.6-2.7,0.3-3.6l26.2-25  c1.6-1.5,4.3-1.5,5.9,0l26.1,24.9C79.8,45,80.2,46,80,47c-0.3,1.3-1.4,2.2-2.7,2.2h-2V79C75.2,80.5,74,81.7,72.5,81.7z M50,20.7  c-0.5,0-0.9,0.2-1.2,0.5l-26.2,25c0,0-0.1,0.1-0.1,0.3c0.1,0.2,0.2,0.2,0.2,0.2h4.5V79c0,0.1,0.1,0.2,0.2,0.2h45  c0.1,0,0.2-0.1,0.2-0.2V46.7h4.5c0,0,0.2,0,0.2-0.1s0-0.2-0.1-0.3l-26.2-25C50.9,20.9,50.4,20.7,50,20.7z"/><text x="0" y="115" fill="#000000" font-size="5px" font-weight="bold" font-family="'Helvetica Neue', Helvetica, Arial-Unicode, Arial, Sans-serif">Created by Hanan Awada</text><text x="0" y="120" fill="#000000" font-size="5px" font-weight="bold" font-family="'Helvetica Neue', Helvetica, Arial-Unicode, Arial, Sans-serif">from the Noun Project</text></svg>