<?xml version="1.0" encoding="UTF-8"?>
<svg width="70px" height="70px" viewBox="0 0 70 70" version="1.1" xmlns="http://www.w3.org/2000/svg" xmlns:xlink="http://www.w3.org/1999/xlink">
    <!-- Generator: Sketch 47.1 (45422) - http://www.bohemiancoding.com/sketch -->
    <title>noun_830088_cc</title>
    <desc>Created with Sketch.</desc>
    <defs></defs>
    <g id="Page-1" stroke="none" stroke-width="1" fill="none" fill-rule="evenodd">
        <g id="noun_830088_cc" transform="translate(-1.000000, -1.000000)" fill-rule="nonzero" fill="#000000">
            <g id="Group" transform="translate(0.000000, 0.637820)">
                <path d="M35.78125,0.36218 C35.5906942,0.405091398 35.4168753,0.502864532 35.28125,0.64343 L29.28125,6.64343 C29.0299264,6.90019177 28.9347078,7.27154633 29.0314741,7.61756142 C29.1282405,7.96357651 29.4022847,8.2316633 29.7503427,8.32080245 C30.0984007,8.40994159 30.4675732,8.30658536 30.71875,8.04968 L35,3.76843 L35,19.36218 C34.9949049,19.7228125 35.1843816,20.0582526 35.495877,20.2400558 C35.8073725,20.4218589 36.1926275,20.4218589 36.504123,20.2400558 C36.8156184,20.0582526 37.0050951,19.7228125 37,19.36218 L37,3.76843 L41.28125,8.04968 C41.5324268,8.30658536 41.9015993,8.40994159 42.2496573,8.32080245 C42.5977153,8.2316633 42.8717595,7.96357651 42.9685259,7.61756142 C43.0652922,7.27154633 42.9700736,6.90019177 42.71875,6.64343 L36.71875,0.64343 C36.476611,0.392718479 36.1214091,0.286157896 35.78125,0.36218 Z M11.84375,10.29968 C11.3407937,10.363076 10.9648209,10.7927592 10.96875,11.29968 L10.96875,19.79968 C10.9636549,20.1603125 11.1531316,20.4957526 11.464627,20.6775558 C11.7761225,20.8593589 12.1613775,20.8593589 12.472873,20.6775558 C12.7843684,20.4957526 12.9738451,20.1603125 12.96875,19.79968 L12.96875,13.73718 L23.96875,24.73718 C24.2199268,24.9940854 24.5890993,25.0974416 24.9371573,25.0083024 C25.2852153,24.9191633 25.5592595,24.6510765 25.6560259,24.3050614 C25.7527922,23.9590463 25.6575736,23.5876918 25.40625,23.33093 L14.375,12.29968 L20.4375,12.29968 C20.7981325,12.3047751 21.1335726,12.1152984 21.3153758,11.803803 C21.4971789,11.4923075 21.4971789,11.1070525 21.3153758,10.795557 C21.1335726,10.4840616 20.7981325,10.2945849 20.4375,10.29968 L11.96875,10.29968 C11.9271241,10.2970735 11.8853759,10.2970735 11.84375,10.29968 L11.84375,10.29968 Z M51.46875,10.29968 C50.9164653,10.3255683 50.4897367,10.7942703 50.515625,11.346555 C50.5415133,11.8988397 51.0102153,12.3255683 51.5625,12.29968 L57.625,12.29968 L46.59375,23.33093 C46.3424264,23.5876918 46.2472078,23.9590463 46.3439741,24.3050614 C46.4407405,24.6510765 46.7147847,24.9191633 47.0628427,25.0083024 C47.4109007,25.0974416 47.7800732,24.9940854 48.03125,24.73718 L59.03125,13.73718 L59.03125,19.79968 C59.0261549,20.1603125 59.2156316,20.4957526 59.527127,20.6775558 C59.8386225,20.8593589 60.2238775,20.8593589 60.535373,20.6775558 C60.8468684,20.4957526 61.0363451,20.1603125 61.03125,19.79968 L61.03125,11.29968 C61.0311949,10.7474181 60.5835119,10.2997351 60.03125,10.29968 L51.5625,10.29968 C51.5312672,10.2982145 51.4999828,10.2982145 51.46875,10.29968 L51.46875,10.29968 Z M36,26.36218 C31.041282,26.36218 27,30.40344 27,35.36218 C27,40.32088 31.041282,44.36218 36,44.36218 C40.958718,44.36218 45,40.32088 45,35.36218 C45,30.40344 40.958718,26.36218 36,26.36218 Z M7.96875,28.33093 C7.70754972,28.341245 7.46076972,28.4534177 7.28125,28.64343 L1.28125,34.64343 C0.896059082,35.0330482 0.896059082,35.6600618 1.28125,36.04968 L7.28125,42.04968 C7.67028723,42.4427047 8.30368649,42.4477996 8.69899578,42.061084 C9.09430506,41.6743684 9.10313055,41.0410101 8.71875,40.64343 L4.4375,36.36218 L20,36.36218 C20.3606325,36.3672751 20.6960726,36.1777984 20.8778758,35.866303 C21.0596789,35.5548075 21.0596789,35.1695525 20.8778758,34.858057 C20.6960726,34.5465616 20.3606325,34.3570849 20,34.36218 L4.4375,34.36218 L8.71875,30.04968 C9.01988292,29.759561 9.10873437,29.3127215 8.94149729,28.9294698 C8.77426021,28.5462182 8.38624199,28.3074672 7.96875,28.33093 L7.96875,28.33093 Z M63.875,28.33093 C63.4857455,28.3688126 63.1542884,28.6301164 63.0265884,28.9997742 C62.8988885,29.3694319 62.9983796,29.7796088 63.28125,30.04968 L67.5625,34.36218 L52,34.36218 C51.9376379,34.3563083 51.8748621,34.3563083 51.8125,34.36218 C51.2602153,34.4139567 50.8544733,34.9036453 50.90625,35.45593 C50.9580267,36.0082147 51.4477153,36.4139567 52,36.36218 L67.5625,36.36218 L63.28125,40.64343 C62.8968694,41.0410101 62.9056949,41.6743684 63.3010042,42.061084 C63.6963135,42.4477996 64.3297128,42.4427047 64.71875,42.04968 L70.71875,36.04968 C71.1039409,35.6600618 71.1039409,35.0330482 70.71875,34.64343 L64.71875,28.64343 C64.5028835,28.4114851 64.1898737,28.2955556 63.875,28.33093 L63.875,28.33093 Z M36,28.36218 C39.877838,28.36218 43,31.48432 43,35.36218 C43,39.23998 39.877838,42.36218 36,42.36218 C32.122162,42.36218 29,39.23998 29,35.36218 C29,31.48432 32.122162,28.36218 36,28.36218 Z M24.65625,45.64343 C24.3950497,45.653745 24.1482697,45.7659177 23.96875,45.95593 L12.96875,56.98718 L12.96875,50.89343 C12.9709799,50.6050749 12.848636,50.3297907 12.6331102,50.1382122 C12.4175845,49.9466338 12.129855,49.8574083 11.84375,49.89343 C11.3407937,49.956826 10.9648209,50.3865092 10.96875,50.89343 L10.96875,59.39343 C10.9688051,59.9456919 11.4164881,60.3933749 11.96875,60.39343 L20.4375,60.39343 C20.7981325,60.3985251 21.1335726,60.2090484 21.3153758,59.897553 C21.4971789,59.5860575 21.4971789,59.2008025 21.3153758,58.889307 C21.1335726,58.5778116 20.7981325,58.3883349 20.4375,58.39343 L14.375,58.39343 L25.40625,47.36218 C25.7073829,47.072061 25.7962344,46.6252215 25.6289973,46.2419698 C25.4617602,45.8587182 25.073742,45.6199672 24.65625,45.64343 Z M47.21875,45.64343 C46.8239693,45.6703777 46.4821985,45.9275552 46.346971,46.2994308 C46.2117435,46.6713065 46.3084903,47.0879449 46.59375,47.36218 L57.625,58.39343 L51.5625,58.39343 C51.2018675,58.3883349 50.8664274,58.5778116 50.6846242,58.889307 C50.5028211,59.2008025 50.5028211,59.5860575 50.6846242,59.897553 C50.8664274,60.2090484 51.2018675,60.3985251 51.5625,60.39343 L60.03125,60.39343 C60.5835119,60.3933749 61.0311949,59.9456919 61.03125,59.39343 L61.03125,50.89343 C61.0324624,50.6111517 60.9143274,50.3415066 60.705996,50.1510321 C60.4976645,49.9605576 60.2185404,49.8669944 59.9375,49.89343 C59.4221444,49.9420007 59.0290179,50.3757954 59.03125,50.89343 L59.03125,56.98718 L48.03125,45.95593 C47.8223355,45.7331727 47.5230909,45.6180786 47.21875,45.64343 L47.21875,45.64343 Z M35.875,50.33093 C35.3598842,50.3954753 34.9798021,50.8434292 35,51.36218 L35,66.92468 L30.71875,62.64343 C30.5028835,62.4114851 30.1898737,62.2955556 29.875,62.33093 C29.4857455,62.3688126 29.1542884,62.6301164 29.0265884,62.9997742 C28.8988885,63.3694319 28.9983796,63.7796088 29.28125,64.04968 L35.28125,70.04968 C35.4696645,70.2444176 35.7290336,70.3543677 36,70.3543677 C36.2709664,70.3543677 36.5303355,70.2444176 36.71875,70.04968 L42.71875,64.04968 C43.1031306,63.6520999 43.0943051,63.0187416 42.6989958,62.632026 C42.3036865,62.2453104 41.6702872,62.2504053 41.28125,62.64343 L37,66.92468 L37,51.36218 C37.0114861,51.068437 36.8931553,50.7845168 36.676456,50.5858758 C36.4597566,50.3872347 36.1666376,50.2939926 35.875,50.33093 L35.875,50.33093 Z" id="Shape"></path>
            </g>
        </g>
    </g>
</svg>