<svg xmlns="http://www.w3.org/2000/svg" xmlns:xlink="http://www.w3.org/1999/xlink" version="1.1" x="0px" y="0px" viewBox="0 0 100 125" style="enable-background:new 0 0 100 100;" xml:space="preserve"><g><g><g><path d="M50,13c20.4,0,37,16.6,37,37S70.4,87,50,87S13,70.4,13,50S29.6,13,50,13 M50,5C25.1,5,5,25.1,5,50s20.1,45,45,45     s45-20.1,45-45S74.9,5,50,5L50,5z"/></g><path d="M67.3,49H51.9V31.6c0-2.2-1.8-4-4-4s-4,1.8-4,4V51c0,0.4,0.1,0.7,0.1,1c-0.1,0.3-0.1,0.7-0.1,1c0,2.2,1.8,4,4,4h19.4    c2.2,0,4-1.8,4-4S69.5,49,67.3,49z"/></g></g><text x="0" y="115" fill="#000000" font-size="5px" font-weight="bold" font-family="'Helvetica Neue', Helvetica, Arial-Unicode, Arial, Sans-serif">Created by Christian Shannon</text><text x="0" y="120" fill="#000000" font-size="5px" font-weight="bold" font-family="'Helvetica Neue', Helvetica, Arial-Unicode, Arial, Sans-serif">from the Noun Project</text></svg>