<?xml version="1.0" encoding="UTF-8"?>
<svg width="61px" height="64px" viewBox="0 0 61 64" version="1.1" xmlns="http://www.w3.org/2000/svg" xmlns:xlink="http://www.w3.org/1999/xlink">
    <!-- Generator: Sketch 47.1 (45422) - http://www.bohemiancoding.com/sketch -->
    <title>noun_317197_cc</title>
    <desc>Created with Sketch.</desc>
    <defs></defs>
    <g id="Page-1" stroke="none" stroke-width="1" fill="none" fill-rule="evenodd">
        <g id="noun_317197_cc" fill-rule="nonzero" fill="#000000">
            <path d="M53.5,63.7 L8.5,63.7 C7,63.7 5.7,62.5 5.7,61 L5.7,31.2 L3.8,31.2 C2.9,31.2 2,30.8 1.4,30 C0.6,28.8 0.8,27.3 1.7,26.4 L27.9,1.4 C29.5,-0.1 32.2,-0.1 33.8,1.4 L59.9,26.3 C60.8,27 61.2,28 61,29 C60.7,30.3 59.6,31.2 58.3,31.2 L56.3,31.2 L56.3,61 C56.2,62.5 55,63.7 53.5,63.7 Z M31,2.7 C30.5,2.7 30.1,2.9 29.8,3.2 L3.6,28.2 C3.6,28.2 3.5,28.3 3.5,28.5 C3.6,28.7 3.7,28.7 3.7,28.7 L8.2,28.7 L8.2,61 C8.2,61.1 8.3,61.2 8.4,61.2 L53.4,61.2 C53.5,61.2 53.6,61.1 53.6,61 L53.6,28.7 L58.1,28.7 C58.1,28.7 58.3,28.7 58.3,28.6 C58.3,28.5 58.3,28.4 58.2,28.3 L32,3.3 C31.9,2.9 31.4,2.7 31,2.7 Z" id="Shape"></path>
        </g>
    </g>
</svg>