<?xml version="1.0" encoding="UTF-8"?>
<svg width="77px" height="68px" viewBox="0 0 77 68" version="1.1" xmlns="http://www.w3.org/2000/svg" xmlns:xlink="http://www.w3.org/1999/xlink">
    <!-- Generator: Sketch 47.1 (45422) - http://www.bohemiancoding.com/sketch -->
    <title>Paint Copy</title>
    <desc>Created with Sketch.</desc>
    <defs></defs>
    <g id="Page-1" stroke="none" stroke-width="1" fill="none" fill-rule="evenodd">
        <g id="Schüler-Home" transform="translate(-90.000000, -638.000000)" fill="#FFFFFF">
            <path d="M128.72223,638.000125 C122.68206,637.984481 116.643729,639.43379 111.20055,642.584282 C109.720946,643.366222 108.323092,644.379698 107,645.553759 C110.406861,647.567644 112.86545,651.823178 113.214615,655.125696 C123.105435,664.592355 133.513702,674.180672 141.755623,683.380089 C146.328971,686.438003 151.810772,693.654456 158.155232,689.982364 C166.039804,685.418821 171.297411,672.948727 162.21196,657.17271 C155.312534,645.192559 142.010715,638.033531 128.72223,638.000125 Z M92.3775944,644.003184 C90.474735,644.033881 89.4822148,644.296065 90.2738589,644.65368 C100.190935,649.133933 99.3049702,653.358772 102.165797,657.438705 C104.333782,660.53057 107.848226,660.903714 110.726796,658.11755 C113.592012,655.344387 111.035348,650.637883 108.798349,648.472151 C105.162128,644.952159 96.5640533,643.934839 92.3775944,644.003184 Z M126.73857,645.071487 C129.655192,646.432189 131.5347,649.785796 131.996874,652.613646 C132.105664,656.760786 129.364786,660.569548 125.29684,661 C121.832024,660.964069 118.253088,659.162406 116.53306,656.356474 C115.811923,655.14237 115.861258,653.539674 116.448124,652.529118 C117.3769,651.086853 118.700806,650.333293 120.038445,649.349147 C120.629739,648.760509 121.671009,646.992261 123.34604,645.803219 C124.482004,644.994774 125.489661,644.900995 126.73848,645.071487 L126.73857,645.071487 Z M149.764893,651.047867 C150.949822,653.143863 151.625893,654.567088 151.938842,655.836825 C152.270381,658.437533 151.251311,659.788081 148.946063,660.597892 C146.64253,661.951032 144.274115,663.274852 141.774763,662.950445 C138.743813,662.213222 134.627286,660.577689 135.027045,657.069106 C136.373412,653.034982 139.986044,648.818586 143.835824,648.023168 C146.043704,647.788601 148.726512,649.373359 149.764893,651.047867 Z M99.2692153,657 C92.7872832,672.27232 94.9170726,693.653123 115.055647,700.514109 C128.186489,703.195993 131.150262,694.139153 133,688.923921 C126.919088,683.313058 121.200174,677.507394 115.59515,671.436833 C114.90092,672.788206 114.287456,673.789288 113.63606,674.545037 C112.071546,676.175121 110.517287,676.358426 108.525346,675.794141 C107.21021,675.430221 105.933281,675.382749 104.685663,675.045346 C102.82567,674.39474 101.549194,672.977444 101.739404,670.65262 C102.293881,667.778994 103.353376,664.185501 105.458845,662.432008 C102.215111,661.643345 100.605949,659.618001 99.2692153,657 Z M112.862069,657 L109,660.862115 C109.942083,661.927659 110.868158,662.95651 111.805998,664 L116,659.80601 C114.957623,658.867013 113.927205,657.94256 112.862069,657 Z M118.214544,662 L114,666.301244 C127.01753,680.837239 139.99474,693.300068 157,706 C144.555604,688.645396 132.434045,675.309294 118.214544,662 Z M160.49752,666.28336 C161.688628,668.169103 162.42646,669.472757 162.824675,670.668067 C163.394695,673.253098 162.568239,674.713651 160.440736,675.768532 C156.723365,678.397738 151.060816,678.945743 148.066764,676.096612 C145.765823,672.542766 147.548539,668.598482 149.996702,665.985175 C153.084185,663.373392 158.442856,663.204497 160.49752,666.28336 Z M117.161485,679.306899 C118.994718,679.836946 120.722169,680.793469 121.893657,681.464217 C126.044595,683.882835 127.391759,688.949735 124.333302,692.047011 C122.527125,693.794417 121.215378,694.862234 120.012512,695.516418 C117.469717,696.551759 115.838652,695.895714 114.398577,693.825497 C112.387131,691.91543 110.421624,689.898348 110.077787,687.324233 C109.818876,685.191854 110.195406,682.842655 111.371121,680.822875 C113.033751,678.740933 114.925512,678.773688 117.161485,679.306899 Z" id="Paint-Copy"></path>
        </g>
    </g>
</svg>