<?xml version="1.0" encoding="UTF-8"?>
<svg width="959px" height="55px" viewBox="0 0 959 55" version="1.1" xmlns="http://www.w3.org/2000/svg" xmlns:xlink="http://www.w3.org/1999/xlink">
    <!-- Generator: Sketch 47.1 (45422) - http://www.bohemiancoding.com/sketch -->
    <title>Frontfiew</title>
    <desc>Created with Sketch.</desc>
    <defs></defs>
    <g id="Page-1" stroke="none" stroke-width="1" fill="none" fill-rule="evenodd">
        <path d="M922.359281,0.237716583 L958.832119,0.237716583 L958.832119,54.4781758 L923.200872,54.4781758 L922.359281,54.4781758 L0.815102888,54.4781758 L0.815102888,0.237716583 L752.462614,0.237716583 C754.796117,0.237716583 757.131283,0.645920434 759.464787,1.46530773 C764.133456,3.10110272 768.457839,6.25350911 772.437934,10.9225269 C774.42715,13.255546 776.258359,15.8835445 777.929899,18.8035428 C783.30045,28.1892518 790.799927,34.607289 798.397534,36.4278186 C804.509882,37.893777 810.685432,36.3801452 816.308793,32.2563924 C820.566646,29.1367615 824.508487,24.5183968 827.780049,18.8035428 C829.449926,15.8835445 831.281135,13.255546 833.270351,10.9225269 C837.250446,6.25350911 841.574828,3.10110272 846.243498,1.46530773 C848.577001,0.645920434 850.912168,0.237716583 853.247334,0.237716583 L922.359281,0.237716583 Z" id="Frontfiew" fill="#AEAEAE"></path>
    </g>
</svg>