<?xml version="1.0" encoding="UTF-8"?>
<svg width="63px" height="63px" viewBox="0 0 63 63" version="1.1" xmlns="http://www.w3.org/2000/svg" xmlns:xlink="http://www.w3.org/1999/xlink">
    <!-- Generator: Sketch 47.1 (45422) - http://www.bohemiancoding.com/sketch -->
    <title>Datentausch</title>
    <desc>Created with Sketch.</desc>
    <defs></defs>
    <g id="Quick-Start-Guide" stroke="none" stroke-width="1" fill="none" fill-rule="evenodd" stroke-linejoin="round">
        <g id="Innenseite" transform="translate(-708.000000, -822.000000)" stroke="#9B9B9B" stroke-width="2.5">
            <g id="Datentausch" transform="translate(710.000000, 824.000000)">
                <path d="M50,8.66190172 C47.4729888,6.11018945 44.4484672,4.01155809 41.1594271,2.53709395 C37.8702853,1.06262982 34.316625,0.212435598 30.7282854,0.0350850225 C27.1400475,-0.14216286 23.5171304,0.353535593 20.1044246,1.49126983 C16.6918205,2.62890137 13.4894277,4.4085687 10.7112206,6.71032654 C7.9329829,9.01198169 5.57885965,11.8357274 3.80726698,14.9930195 C2.03567431,18.1504142 0.846510529,21.6414581 0.317676896,25.2296495 C-0.211055038,28.8179435 -0.0794568221,32.5032823 0.710030772,36.0485481 C1.49951837,39.5938138 2.94699704,42.9990064 4.93175034,46" id="Stroke-1"></path>
                <path d="M9,50.3381041 C11.5270417,52.8898146 14.5515633,54.9884446 17.8406034,56.4629077 C21.1297452,57.9373709 24.6834055,58.7875645 28.2717451,58.964915 C31.859983,59.1421628 35.4829001,58.6464646 38.8956059,57.5087312 C42.3082101,56.3711004 45.5106028,54.5914343 48.2888099,52.289678 C51.0670171,49.9880243 53.4211404,47.1642498 55.192733,44.0069598 C56.9643257,40.8495671 58.1534895,37.3585255 58.6823231,33.7703366 C59.211055,30.182045 59.0794568,26.4967086 58.2899692,22.9514453 C57.5004816,19.4061819 56.053003,16.0009915 54.0682497,13" id="Stroke-2"></path>
                <polyline id="Stroke-3" points="42 7.22541299 51 9 49.2253262 0"></polyline>
                <polyline id="Stroke-4" points="18 51.774587 9 50 10.7746998 59"></polyline>
            </g>
        </g>
    </g>
</svg>