<?xml version="1.0" encoding="UTF-8"?>
<svg width="47px" height="59px" viewBox="0 0 47 59" version="1.1" xmlns="http://www.w3.org/2000/svg" xmlns:xlink="http://www.w3.org/1999/xlink">
    <!-- Generator: Sketch 47.1 (45422) - http://www.bohemiancoding.com/sketch -->
    <title>Menu</title>
    <desc>Created with Sketch.</desc>
    <defs></defs>
    <g id="Quick-Start-Guide" stroke="none" stroke-width="1" fill="none" fill-rule="evenodd">
        <g id="Innenseite" transform="translate(-710.000000, -489.000000)">
            <g id="Menu" transform="translate(710.000000, 491.000000)">
                <path d="M42.2763721,21.0348171 C41.2541317,21.0327836 40.2587216,21.3649438 39.4421953,21.9806035 C39.4353933,19.3910876 37.3051788,17.2640613 34.7185673,17.2640613 C33.5649629,17.2640613 32.4503757,17.6871115 31.586802,18.4528202 C30.9028207,16.6005448 29.1287677,15.3635508 27.1561807,15.3635508 C26.136255,15.3635508 25.1432539,15.694245 24.3265859,16.3058851 L24.3265859,8.73983032 C24.3272472,7.43228062 23.786439,6.18147811 22.8339194,5.28770996 C21.8837144,4.38495684 20.5978484,3.92152151 19.2911985,4.01089832 C16.7869199,4.21329661 14.84395,6.35219255 14.87933,8.86751148 L14.87933,36.8010763 C14.8775822,37.059276 14.6648772,37.2708011 14.4069672,37.2708011 C14.2436241,37.2708011 14.0914761,37.1859641 14.0054588,37.0469808 L11.4452524,32.857147 C9.6296788,29.6912217 6.01274964,27.9858742 2.41839943,28.6011082 C1.47032007,28.7918261 0.67065709,29.4301373 0.273872343,30.3129816 C-0.119369684,31.1221965 -0.0874851954,32.0760693 0.358897646,32.857147 L8.38906516,47.043943 C11.4735942,52.3923651 17.3639583,56.1944264 23.7361324,56.9747002 L23.8542231,56.9747002 C23.8730703,56.9758352 23.8919648,56.9764026 23.9109066,56.9764026 C24.4300805,56.9764026 24.8573327,56.548718 24.8573327,56.0289138 C24.8573327,55.5305317 24.4645158,55.112967 23.9675901,55.0831274 C18.1622514,54.3785165 12.8198282,50.9311251 10.0328877,46.0981566 L2.00272017,31.9113606 C1.87423749,31.6624297 1.87423749,31.3658783 2.00272017,31.1169001 C2.14986118,30.7998252 2.43653816,30.5688641 2.77739515,30.492681 C5.57902613,30.014255 8.39832347,31.3393963 9.82032442,33.8029334 L12.389978,38.0116829 C12.8181277,38.7153953 13.5839695,39.1461064 14.4070144,39.1461064 C15.6953367,39.1461064 16.758153,38.0907979 16.7687811,36.8010763 L16.7687811,8.86751148 C16.7353378,7.34526827 17.8993815,6.04008304 19.4140128,5.90247112 C19.4768843,5.89821508 19.5398975,5.89585061 19.6029579,5.89585061 C21.15774,5.89585061 22.4371347,7.17691829 22.4371347,8.73320981 C22.4371347,8.73557428 22.4371347,8.73746585 22.4371347,8.73983032 L22.4371347,30.492681 C22.4371347,31.0115395 22.8635838,31.4384674 23.3818603,31.4384674 C23.9000895,31.4384674 24.3265859,31.0115395 24.3265859,30.492681 L24.3265859,20.0890307 C24.3265859,18.5325027 25.6059805,17.2516715 27.1607626,17.2516715 C28.7155448,17.2516715 29.9949394,18.5325027 29.9949394,20.0890307 L29.9949394,30.492681 C29.9949394,31.0115395 30.4213885,31.4384674 30.939665,31.4384674 C31.4578942,31.4384674 31.8843906,31.0115395 31.8843906,30.492681 L31.8843906,21.9806035 C31.8843906,20.4240755 33.1637852,19.1432443 34.7185673,19.1432443 C36.2733495,19.1432443 37.5527441,20.4240755 37.5527441,21.9806035 L37.5527441,32.3842538 C37.5527441,32.9031123 37.9791932,33.3300402 38.4974697,33.3300402 C39.0156989,33.3300402 39.4421953,32.9031123 39.4421953,32.3842538 L39.4421953,25.763749 C39.4421953,24.2072211 40.7215899,22.9263899 42.2763721,22.9263899 C43.8311542,22.9263899 45.1105488,24.2072211 45.1105488,25.763749 L45.1105488,40.8963314 C45.1105488,46.4291819 44.9121564,52.1086292 42.5408952,55.4850866 C42.4174668,55.649086 42.3506747,55.8488834 42.3506747,56.0542136 C42.3506747,56.573072 42.7771711,57 43.2954003,57 C43.6135839,57 43.911078,56.8391217 44.0855216,56.572741 C46.7779895,52.747035 47,46.7318335 47,40.8963314 L47,25.763749 C47,23.1695515 44.8676599,21.0348171 42.2763721,21.0348171 Z" id="Fill-1" fill="#9B9B9B"></path>
                <path d="M12,0 C12,0 11.9330362,0.0759108162 11.8153492,0.210459329 C9.32623922,3.04688743 9.40548831,7.25425578 11.9997208,9.99968181 C11.9999069,9.99990909 12,10 12,10" id="Stroke-2" stroke="#9B9B9B" stroke-width="2.5" stroke-linecap="round" stroke-linejoin="round"></path>
                <path d="M27,0 C27,0 27.0669638,0.0759108162 27.1846508,0.210459329 C29.6737608,3.04688743 29.5945117,7.25425578 27.0002792,9.99968181 C27.0000931,9.99990909 27,10 27,10" id="Stroke-3" stroke="#9B9B9B" stroke-width="2.5" stroke-linecap="round" stroke-linejoin="round"></path>
            </g>
        </g>
    </g>
</svg>