<?xml version="1.0" encoding="UTF-8"?>
<svg width="38px" height="80px" viewBox="0 0 38 80" version="1.1" xmlns="http://www.w3.org/2000/svg" xmlns:xlink="http://www.w3.org/1999/xlink">
    <!-- Generator: Sketch 47.1 (45422) - http://www.bohemiancoding.com/sketch -->
    <title>USB</title>
    <desc>Created with Sketch.</desc>
    <defs></defs>
    <g id="Quick-Start-Guide" stroke="none" stroke-width="1" fill="none" fill-rule="evenodd">
        <g id="Innenseite" transform="translate(-710.000000, -391.000000)" fill="#9B9B9B">
            <g id="USB" transform="translate(710.000000, 391.000000)">
                <polygon id="Fill-1" points="11 10 18 10 18 7 11 7"></polygon>
                <polygon id="Fill-2" points="20 10 27 10 27 7 20 7"></polygon>
                <path d="M14.4273304,80 L23.5726696,80 C24.062146,80 24.4648979,79.6024221 24.4648979,79.1192337 L24.4648979,64.3575911 L32.2808171,64.3575911 C35.416464,64.3527469 37.9950927,61.8072443 38,58.7118793 L38,23.7806892 C38,23.7806892 37.3380559,23.7806892 37.1077718,23.7806892 L33.1819676,23.7806892 L33.1819676,0.880766267 C33.1819676,0.397577893 32.7792158,0 32.2897394,0 L5.71918291,0 C5.2297065,0 4.82695468,0.397577893 4.82695468,0.880766267 L4.82695468,23.7806892 L0.892228223,23.7806892 C0.647490021,23.7806892 0,23.7806892 0,23.7806892 C0,23.7806892 0,24.4198613 0,24.6614555 L0,58.7030717 C0.0024090162,60.2385996 0,64.3487834 0,64.3487834 C0,64.3487834 4.13913595,64.3463173 5.71918291,64.3487834 L13.5351021,64.3487834 L13.5351021,79.1192337 C13.5351021,79.6024221 13.937854,80 14.4273304,80 Z M22.6804414,78.2384675 L15.3195586,78.2384675 L15.3195586,64.3575911 L22.6804414,64.3575911 L22.6804414,78.2384675 Z M6.62033341,1.72630188 L31.3975112,1.72630188 L31.3975112,23.7454585 L6.61141113,23.7454585 L6.62033341,1.72630188 Z M1.78445645,58.7030717 L1.78445645,25.5422217 L36.2244658,25.5422217 L36.2244658,58.7030717 C36.2195586,60.8320599 34.4464334,62.5824067 32.2897394,62.5872509 L5.71918291,62.5872509 C4.58507161,62.5846967 1.78445645,62.5872509 1.78445645,62.5872509 C1.78445645,62.5872509 1.78677624,59.7124298 1.78445645,58.7030717 Z" id="Fill-3"></path>
            </g>
        </g>
    </g>
</svg>